<svg xmlns="http://www.w3.org/2000/svg" width="479.093" height="473.461" viewBox="0 0 126.76 125.27" fill="#00b200" xmlns:v="https://vecta.io/nano"><path d="M108.227 19.548a56.58 56.58 0 0 0-8.128-7.113C88.965 4.066 75.018-.37 61.095.024h.001C30.745.157 3.226 25.43.48 55.648c-3.9 29.48 16.4 59.567 45.107 67.17 28.154 8.58 60.813-6.032 73.3-32.657 9.512-18.466 8.046-41.24-2.083-59.012l-6.99 7.7c2.916 5.66 4.784 11.86 5.3 18.328 3.268 25.937-15.785 52.1-41.46 56.96-25.252 5.938-53.07-9.9-60.877-34.616C4.002 55.298 16.2 26.005 39.6 15.205c7.156-3.502 15.12-5.3 23.085-5.3l-.001-.001c14.784-.346 28.9 6.437 38.788 17.106z" dominant-baseline="auto" fill-rule="evenodd" paint-order="fill markers stroke"/><path d="M116.406 13.18l-61.7 68.102-23.182-20.236-6.947 7.96 30.994 27.06 68.656-75.8z" dominant-baseline="auto" paint-order="markers stroke fill"/></svg>